<svg xmlns="http://www.w3.org/2000/svg" viewBox="0 0 28.27 16.14">
      <g>

        <g>

          <g>
            <path d="M20.63,16.14h-13V14a6.39,6.39,0,0,1,6.52-6.54A6.39,6.39,0,0,1,20.63,14ZM8.82,14.92H19.4V14a5.2,5.2,0,0,0-5.29-5.32A5.2,5.2,0,0,0,8.82,14Z" fill="#fff"/>
            <path d="M14.11,8.68a4.34,4.34,0,1,1,4.34-4.34A4.34,4.34,0,0,1,14.11,8.68Zm0-7.46a3.12,3.12,0,1,0,3.12,3.12A3.12,3.12,0,0,0,14.11,1.22Z" fill="#fff"/>
          </g>

          <path d="M20.63,16.14h-13V14a6.39,6.39,0,0,1,6.52-6.54A6.39,6.39,0,0,1,20.63,14ZM8.82,14.92H19.4V14a5.2,5.2,0,0,0-5.29-5.32A5.2,5.2,0,0,0,8.82,14Z" fill="#fff"/>
        </g>

        <g>
          <path d="M5.49,8.82A3.69,3.69,0,1,1,9.18,5.12,3.7,3.7,0,0,1,5.49,8.82Zm0-6.16A2.47,2.47,0,1,0,8,5.12,2.47,2.47,0,0,0,5.49,2.65Z" fill="#fff"/>
          <path d="M8.21,15H0V13.1A5.39,5.39,0,0,1,5.49,7.59,5.29,5.29,0,0,1,10,9.88l-1,.69A4.1,4.1,0,0,0,5.49,8.82,4.19,4.19,0,0,0,1.22,13.1v.65h7Z" fill="#fff"/>
        </g>

        <g>
          <path d="M22.78,8.82a3.69,3.69,0,1,1,3.69-3.69A3.7,3.7,0,0,1,22.78,8.82Zm0-6.16a2.47,2.47,0,1,0,2.47,2.47A2.47,2.47,0,0,0,22.78,2.65Z" fill="#fff"/>
          <path d="M28.27,15H20V13.76h7V13.1a4.19,4.19,0,0,0-4.27-4.29,4.09,4.09,0,0,0-3.51,1.79l-1-.68a5.28,5.28,0,0,1,4.53-2.33,5.39,5.39,0,0,1,5.49,5.51Z" fill="#fff"/>
        </g>
        
      </g>
</svg>
