<svg xmlns="http://www.w3.org/2000/svg" width="34" height="34" viewBox="0 0 34 34">
  <path fill="#4A4A4A" fill-rule="evenodd" d="M17,34 C26.3888407,34 34,26.3888407 34,17 C34,7.61115925 26.3888407,0 17,0 C7.61115925,0 0,7.61115925 0,17 C0,26.3888407 7.61115925,34 17,34 Z M17.3826265,11.921503 C18.3312872,11.921503 18.9953497,11.3048735 18.9953497,10.4131324 C18.9953497,9.52139137 18.3312872,8.9047619 17.3826265,8.9047619 C16.4434524,8.9047619 15.7793899,9.52139137 15.7793899,10.4131324 C15.7793899,11.3048735 16.4434524,11.921503 17.3826265,11.921503 Z M21.7938988,24.6145833 L21.7938988,22.8500744 L18.530506,22.8500744 L18.530506,14.2267485 L13.0662202,14.2267485 L13.0662202,15.9912574 L16.3770461,15.9912574 L16.3770461,22.8500744 L12.952381,22.8500744 L12.952381,24.6145833 L21.7938988,24.6145833 Z"/>
</svg>
