<svg xmlns="http://www.w3.org/2000/svg" height="52" width="132" viewBox="0 0 132 52">
        <g fill="#fff">
          <path d="M18.92.42H1a1,1,0,0,0-1,1V23.93a1,1,0,0,0,1,1h6a1,1,0,0,0,1-1V16.69h8.85a1,1,0,0,0,1-1V10.84a1,1,0,0,0-1-1H7.89V7.51h11a1,1,0,0,0,1-1V1.37A1,1,0,0,0,18.92.42Zm.19,6.14a.19.19,0,0,1-.19.19H7.31a.19.19,0,0,0-.19.19v3.52a.19.19,0,0,0,.19.19h9.43a.19.19,0,0,1,.19.19v4.89a.19.19,0,0,1-.19.19H7.31a.19.19,0,0,0-.19.19v7.81a.19.19,0,0,1-.19.19H1a.19.19,0,0,1-.19-.19V1.37A.19.19,0,0,1,1,1.18h18a.19.19,0,0,1,.19.19Z" />
          <path d="M36.37,9.4c0-1.83-1.34-2.75-3.44-2.75h-4a.19.19,0,0,0-.19.19V12a.19.19,0,0,0,.19.19h4c2.13,0,3.41-1,3.41-2.72Zm-.76.07c0,1.76-1.85,2-2.64,2H29.5v-4h3.43c1.78,0,2.68.67,2.68,2Z" />
          <path d="M43.91,23.39l-4.76-7A8,8,0,0,0,43.49,9V9A7.89,7.89,0,0,0,41.24,3.1c-1.78-1.78-4.47-2.68-8-2.68H22.57a1,1,0,0,0-1,1V23.93a1,1,0,0,0,1,1h6a1,1,0,0,0,1-1v-6h1.64l4.34,6.52a1,1,0,0,0,.8.43h6.84a1,1,0,0,0,.79-1.49Zm-.79.73H36.28a.19.19,0,0,1-.16-.09l-4.51-6.78a.19.19,0,0,0-.16-.09H28.93a.19.19,0,0,0-.19.19v6.57a.19.19,0,0,1-.19.19h-6a.19.19,0,0,1-.19-.19V1.37a.19.19,0,0,1,.19-.19H33.22c3.51,0,5.93.92,7.47,2.46a7.16,7.16,0,0,1,2,5.34V9a7.24,7.24,0,0,1-4.51,7,.19.19,0,0,0-.08.28l5.14,7.51A.19.19,0,0,1,43.12,24.12Z"/>
          <path d="M55.94,15h4.58a.19.19,0,0,0,.18-.26L58.42,9a.19.19,0,0,0-.35,0l-2.31,5.78A.19.19,0,0,0,55.94,15Zm2.3-4.41,1.44,3.65H56.79Z" />
          <path d="M71.72,23.55,62.11.83a1,1,0,0,0-.88-.58H55.36a1,1,0,0,0-.88.58L44.91,23.55a1,1,0,0,0,.88,1.33H52a1,1,0,0,0,.89-.6l1.4-3.53h7.84l1.4,3.53a1,1,0,0,0,.89.6h6.4a1,1,0,0,0,.88-1.33Zm-.88.56h-6.4a.19.19,0,0,1-.18-.12l-1.54-3.89a.19.19,0,0,0-.18-.12H53.92a.19.19,0,0,0-.18.12L52.2,24a.19.19,0,0,1-.18.12H45.79a.19.19,0,0,1-.18-.26L55.18,1.13A.19.19,0,0,1,55.36,1h5.87a.19.19,0,0,1,.18.12L71,23.85A.19.19,0,0,1,70.84,24.12Z" />
          <path d="M120.41,17.94H109V15.84h10.18a1,1,0,0,0,1-1V10.25a1,1,0,0,0-1-1H109v-2h11.2a1,1,0,0,0,1-1v-5a1,1,0,0,0-1-1H102.18a1,1,0,0,0-1,1V23.93a1,1,0,0,0,1,1h18.23a1,1,0,0,0,1-1v-5A1,1,0,0,0,120.41,17.94Zm.19,6a.19.19,0,0,1-.19.19H102.18a.19.19,0,0,1-.19-.19V1.37a.19.19,0,0,1,.19-.19h18.07a.19.19,0,0,1,.19.19v5a.19.19,0,0,1-.19.19H108.47a.19.19,0,0,0-.19.19V9.87a.19.19,0,0,0,.19.19h10.75a.19.19,0,0,1,.19.19v4.63a.19.19,0,0,1-.19.19H108.47a.19.19,0,0,0-.19.19v3.26a.19.19,0,0,0,.19.19h11.94a.19.19,0,0,1,.19.19Z" />
          <path d="M36.82,27.56a1,1,0,0,0-.77-.4H29.86a1,1,0,0,0-.91.68L25.69,38.66,22.07,27.75a1,1,0,0,0-.91-.65H16a1,1,0,0,0-.91.65L11.44,38.66,8.18,27.84a1,1,0,0,0-.91-.68H1A1,1,0,0,0,0,28.42L7.59,51.13a1,1,0,0,0,.91.65h5.26a1,1,0,0,0,.9-.64l3.85-11,3.82,11a1,1,0,0,0,.9.64H28.5a1,1,0,0,0,.91-.65L37,28.42A1,1,0,0,0,36.82,27.56Zm-.59.62L30.53,45.33l-1.85,5.56a.19.19,0,0,1-.18.13H23.24a.19.19,0,0,1-.18-.13l-1.93-5.57-2.43-7a.19.19,0,0,0-.36,0L13.94,50.9a.19.19,0,0,1-.18.13H8.5a.19.19,0,0,1-.18-.13L.77,28.18A.19.19,0,0,1,1,27.92H7.27a.19.19,0,0,1,.18.14l3.78,12.56a.19.19,0,0,0,.36,0L15.79,28a.19.19,0,0,1,.18-.13h5.2a.19.19,0,0,1,.18.13l4.19,12.63a.19.19,0,0,0,.36,0l3.78-12.56a.19.19,0,0,1,.18-.14H36A.19.19,0,0,1,36.22,28.18Z" />
          <path d="M58.88,30.38a13.26,13.26,0,0,0-9.35-3.68A12.79,12.79,0,0,0,36.39,39.39v.07a12.39,12.39,0,0,0,3.74,8.95,13.26,13.26,0,0,0,9.35,3.68A12.79,12.79,0,0,0,62.62,39.39v-.07A12.39,12.39,0,0,0,58.88,30.38Zm3,9A12,12,0,0,1,49.47,51.32c-7.08,0-12.32-5.28-12.32-11.86v-.07A12,12,0,0,1,49.54,27.47c7.08,0,12.32,5.28,12.32,11.86Z" />
          <path d="M49.54,45.59a5.85,5.85,0,0,0,5.8-6.13v-.07a5.91,5.91,0,0,0-5.87-6.19,5.85,5.85,0,0,0-5.83,6.13v.07A6,6,0,0,0,49.54,45.59ZM44.4,39.33a5.09,5.09,0,1,1,10.17.07v.07a5.09,5.09,0,0,1-5,5.36,5.17,5.17,0,0,1-5.13-5.43Z" />
          <path d="M72.06,38.93h4c2.13,0,3.41-1,3.41-2.72v-.07c0-1.83-1.34-2.75-3.44-2.75h-4a.19.19,0,0,0-.19.19v5.16A.19.19,0,0,0,72.06,38.93Zm.57-4.77h3.43c1.78,0,2.68.67,2.68,2v.07c0,1.76-1.85,2-2.64,2H72.64Z" />
          <path d="M87,50.13l-4.76-7a8,8,0,0,0,4.35-7.38v-.07a7.89,7.89,0,0,0-2.26-5.88c-1.78-1.78-4.47-2.68-8-2.68H65.7a1,1,0,0,0-1,1V50.67a1,1,0,0,0,1,1h6a1,1,0,0,0,1-1v-6h1.64l4.34,6.52a1,1,0,0,0,.79.42h6.84A1,1,0,0,0,87,50.13Zm-.79.73H79.41a.19.19,0,0,1-.16-.09L74.75,44a.19.19,0,0,0-.16-.09H72.06a.19.19,0,0,0-.19.19v6.57a.19.19,0,0,1-.19.19h-6a.19.19,0,0,1-.19-.19V28.12a.19.19,0,0,1,.19-.19H76.36c3.51,0,5.93.92,7.47,2.46a7.16,7.16,0,0,1,2,5.34v.07a7.24,7.24,0,0,1-4.51,7,.19.19,0,0,0-.08.28l5.14,7.51A.19.19,0,0,1,86.25,50.86Z" />
          <path d="M112,50.13l-8.44-12.32,8-9.07a1,1,0,0,0-.72-1.59h-7a1,1,0,0,0-.73.34l-6.53,7.66v-7a1,1,0,0,0-1-1h-6a1,1,0,0,0-1,1V50.67a1,1,0,0,0,1,1h6a1,1,0,0,0,1-1V45.19l1.47-1.62,5.2,7.64a1,1,0,0,0,.79.42h7.14a1,1,0,0,0,.79-1.5Zm-.79.73H104a.19.19,0,0,1-.16-.08l-5.61-8.24a.19.19,0,0,0-.3,0l-2.11,2.32a.19.19,0,0,0,0,.13v5.7a.19.19,0,0,1-.19.19h-6a.19.19,0,0,1-.19-.19V28.12a.19.19,0,0,1,.19-.19h6a.19.19,0,0,1,.19.19v8.6a.19.19,0,0,0,.34.12L103.68,28a.19.19,0,0,1,.14-.07h7a.19.19,0,0,1,.14.32l-8.3,9.4a.19.19,0,0,0,0,.23l7.19,10.49,1.5,2.2A.19.19,0,0,1,111.18,50.86Z" />
          <path d="M123.61,35.83c-3.15-.71-3.4-1.07-3.4-1.48v-.07c0-.66,1.17-.71,1.53-.71a10.44,10.44,0,0,1,5.83,2,1,1,0,0,0,1.33-.23l3-4.19a1,1,0,0,0-.19-1.31,15.24,15.24,0,0,0-9.76-3.1c-5.77,0-9.64,3.26-9.64,8.1v.07c0,5.36,4.57,6.85,9.24,7.92,3.06.73,3.31,1.12,3.31,1.48v.07c0,.73-1.32.81-1.89.81a11.09,11.09,0,0,1-6.83-2.48,1,1,0,0,0-1.31.14l-3.3,3.94h0a1,1,0,0,0,.11,1.34A16.94,16.94,0,0,0,122.69,52c6.1,0,10-3.23,10-8.24v-.07C132.73,38.54,128.34,36.86,123.61,35.83Zm8.35,8c0,4.69-3.7,7.47-9.27,7.47a16.13,16.13,0,0,1-10.6-3.68.19.19,0,0,1,0-.27l3.3-3.94a.19.19,0,0,1,.26,0A11.82,11.82,0,0,0,122.92,46c1.74,0,2.65-.59,2.65-1.57v-.07c0-1-.75-1.47-3.9-2.23C116.79,41,113,39.62,113,34.94v-.07c0-4.26,3.37-7.34,8.88-7.34a14.48,14.48,0,0,1,9.29,2.93.19.19,0,0,1,0,.26l-3,4.19a.19.19,0,0,1-.26,0,11.19,11.19,0,0,0-6.27-2.15c-1.54,0-2.29.62-2.29,1.47v.07c0,1,.79,1.51,4,2.23,5.24,1.15,8.52,2.85,8.52,7.14Z" />
          <path d="M98.29,0H91.77a1,1,0,0,0-.83.47L86.08,8.34,81.23.47A1,1,0,0,0,80.4,0H73.87a1,1,0,0,0-1,1v23a1,1,0,0,0,1,1h5.94a1,1,0,0,0,1-1V13.38l4.49,6.89a.87.87,0,0,0,.73.4h0a.87.87,0,0,0,.73-.4l4.53-6.93V23.93a1,1,0,0,0,1,1h6a1,1,0,0,0,1-1V1A1,1,0,0,0,98.29,0Zm.2,23.93a.2.2,0,0,1-.2.2h-6a.2.2,0,0,1-.2-.2V11.4a.2.2,0,0,0-.37-.11l-5.59,8.56a.1.1,0,0,1-.16,0l-5.55-8.52a.2.2,0,0,0-.37.11v12.5a.2.2,0,0,1-.2.2H73.87a.2.2,0,0,1-.2-.2V1a.2.2,0,0,1,.2-.2H80.4a.2.2,0,0,1,.17.1l5.34,8.67a.2.2,0,0,0,.34,0L91.59.87a.2.2,0,0,1,.17-.1h6.53a.2.2,0,0,1,.2.2Z" />
          <path d="M131.23,9.31H124a.92.92,0,0,0-.9,1v4.62a.92.92,0,0,0,.9,1h7.27a.92.92,0,0,0,.9-1V10.27A.92.92,0,0,0,131.23,9.31Zm.13,5.59c0,.11-.06.19-.13.19H124c-.08,0-.14-.09-.14-.2V10.27c0-.11.06-.2.14-.2h7.27c.07,0,.13.09.13.19Z" />
        </g>
</svg>
